<svg width="36" height="36" viewBox="0 0 36 36" fill="none" xmlns="http://www.w3.org/2000/svg">
<g clip-path="url(#clip0_0_12)">
<path d="M31.48 6.87615L20.8974 0.772954C19.1103 -0.257687 16.8898 -0.257616 15.1026 0.772954L4.52004 6.87615C2.72946 7.90869 1.61719 9.83434 1.61719 11.9015V24.0984C1.61719 26.1656 2.72946 28.0913 4.51997 29.1238L15.1026 35.227C16.89 36.2578 19.1105 36.2575 20.8974 35.227L31.48 29.1238C33.2705 28.0913 34.3828 26.1656 34.3828 24.0984V11.9015C34.3828 9.83441 33.2705 7.90876 31.48 6.87615ZM31.5703 24.0984C31.5703 25.1632 30.9974 26.1551 30.075 26.687L19.4924 32.7902C18.5718 33.3212 17.4281 33.3212 16.5075 32.7902L5.92488 26.687C5.00259 26.1551 4.42969 25.1632 4.42969 24.0984V11.9015C4.42969 10.8368 5.00259 9.84488 5.92495 9.31304L16.5075 3.20984C17.4282 2.67884 18.5722 2.67906 19.4925 3.20984L30.0751 9.31297C30.9974 9.84488 31.5703 10.8367 31.5703 11.9015V24.0984Z" fill="#7839F3"/>
<path d="M16.6638 16.9262L11.4409 12.5062C10.8481 12.0044 9.96066 12.0783 9.45899 12.6713C8.95731 13.2644 9.03127 14.1518 9.62415 14.6535L13.5784 18L9.62415 21.3464C9.03127 21.8481 8.95738 22.7355 9.45899 23.3285C9.96186 23.9228 10.8495 23.9942 11.4409 23.4936L16.6638 19.0736C17.3282 18.5113 17.3263 17.487 16.6638 16.9262Z" fill="#7839F3"/>
<path d="M25.4677 21.0134H19.1399C18.3632 21.0134 17.7336 21.6431 17.7336 22.4199C17.7336 23.1967 18.3632 23.8264 19.1399 23.8264H25.4677C26.2443 23.8264 26.8739 23.1967 26.8739 22.4199C26.8739 21.6431 26.2443 21.0134 25.4677 21.0134Z" fill="#7839F3"/>
</g>
<defs>
<clipPath id="clip0_0_12">
<rect width="36" height="36" fill="white"/>
</clipPath>
</defs>
</svg>
